<?xml version="1.0" encoding="utf-8"?>
<!-- Generator: Adobe Illustrator 27.8.0, SVG Export Plug-In . SVG Version: 6.00 Build 0)  -->
<svg version="1.1" id="Capa_1" xmlns="http://www.w3.org/2000/svg" xmlns:xlink="http://www.w3.org/1999/xlink" x="0px" y="0px"
	 viewBox="0 0 800 800" style="enable-background:new 0 0 800 800;" xml:space="preserve">
<style type="text/css">
	.st0{fill:#A6ADBB;}
</style>
<g id="XMLID_467_">
	<path id="XMLID_922_" class="st0" d="M400,197.1c-111.9,0-202.9,91-202.9,202.9s91,202.9,202.9,202.9s202.9-91,202.9-202.9
		C602.9,288.1,511.9,197.1,400,197.1z"/>
	<path id="XMLID_1397_" class="st0" d="M702.2,400l74.3-99.8c5.1-6.8,6.5-15.7,3.9-23.8c-2.6-8.1-9-14.4-17.1-16.9l-118.8-37.1
		l1.4-124.4c0.1-8.5-3.9-16.5-10.8-21.5c-6.9-5-15.8-6.4-23.8-3.6l-117.9,39.8l-72-101.5C416.5,4.1,408.5,0,400,0
		c-8.5,0-16.5,4.1-21.4,11.1l-72,101.5L188.7,72.8c-8.1-2.7-16.9-1.4-23.8,3.6c-6.9,5-10.9,13-10.8,21.5l1.4,124.4L36.7,259.5
		c-8.1,2.5-14.5,8.8-17.1,16.9c-2.6,8.1-1.2,16.9,3.9,23.8L97.8,400l-74.3,99.8c-5.1,6.8-6.5,15.7-3.9,23.8
		c2.6,8.1,9,14.4,17.1,16.9l118.8,37.1l-1.4,124.4c-0.1,8.5,3.9,16.5,10.8,21.5c6.9,5,15.8,6.4,23.8,3.6l117.9-39.8l72,101.5
		c4.9,6.9,12.9,11.1,21.4,11.1c8.5,0,16.5-4.1,21.4-11.1l72-101.5l117.9,39.8c8.1,2.7,16.9,1.4,23.8-3.6c6.9-5,10.9-13,10.8-21.5
		l-1.4-124.4l118.8-37.1c8.1-2.5,14.5-8.8,17.1-16.9c2.6-8.1,1.2-16.9-3.9-23.8L702.2,400z M400,655.3
		c-140.8,0-255.3-114.5-255.3-255.3S259.2,144.7,400,144.7S655.3,259.2,655.3,400S540.8,655.3,400,655.3z"/>
</g>
</svg>
